<?xml version="1.0" encoding="UTF-8"?>
<svg id="Layer_2" data-name="Layer 2" xmlns="http://www.w3.org/2000/svg" viewBox="0 0 200 50.83">
  <defs>
    <style>
      .cls-1 {
        fill: #7cc242;
        stroke-width: 0px;
      }
    </style>
  </defs>
  <g id="Layer_1-2" data-name="Layer 1">
    <g>
      <path class="cls-1" d="m52.21,41.9v7.9h-23.7v-7.9l3.92-1.86-.76-2.61h-12.57l-.76,2.54,4.26,1.92v7.9H0v-7.9l4.33-1.86L18.89,1.37l15.11-.69,14.29,39.43,3.92,1.79Zm-30.29-13.6h7.14l-1.99-7.69-1.51-6.8-1.51,6.8-2.13,7.69Z"/>
      <path class="cls-1" d="m81.6,1.03c9.27,0,15.46,3.78,15.46,11.68,0,5.84-2.54,9.62-7.56,11.61,5.63,1.99,8.93,5.7,8.93,10.72,0,10.65-7.21,14.77-18.2,14.77h-23.7v-7.9l4.47-2.06V11.68l-4.47-2.75V1.37l18.55-.34h6.53Zm-6.53,18.89h2.75c3.37,0,5.15-1.72,5.15-4.81,0-2.4-2.06-3.44-3.43-3.44h-4.47v8.24Zm0,19.24h4.12c3.09,0,4.81-2.06,4.81-4.46,0-3.09-1.37-5.5-6.18-5.5h-2.75v9.96Z"/>
      <path class="cls-1" d="m148.28,24.73c0,15.8-9.27,26.1-23.36,26.1s-21.64-8.59-21.64-25.07S112.21,0,126.29,0s21.98,8.93,21.98,24.73Zm-29.88.69c0,10.3,2.13,14.08,6.87,14.08s7.9-2.75,7.9-14.43c0-10.3-2.4-13.74-7.21-13.74s-7.56,2.75-7.56,14.08Z"/>
      <path class="cls-1" d="m200,41.9v7.9h-23.7v-7.9l3.92-1.86-.76-2.61h-12.57l-.76,2.54,4.26,1.92v7.9h-22.6v-7.9l4.33-1.86L166.68,1.37l15.11-.69,14.29,39.43,3.92,1.79Zm-30.29-13.6h7.14l-1.99-7.69-1.51-6.8-1.51,6.8-2.13,7.69Z"/>
    </g>
  </g>
</svg>