<?xml version="1.0" encoding="UTF-8"?>
<svg id="Layer_2" data-name="Layer 2" xmlns="http://www.w3.org/2000/svg" viewBox="0 0 200 134.05">
  <defs>
    <style>
      .cls-1 {
        fill: #274358;
      }

      .cls-1, .cls-2, .cls-3 {
        stroke-width: 0px;
      }

      .cls-2 {
        fill: #284358;
      }

      .cls-3 {
        fill: #afdee0;
      }
    </style>
  </defs>
  <g id="Layer_1-2" data-name="Layer 1">
    <g>
      <g>
        <path class="cls-3" d="m110.43,60.76c-.82.68-1.29,1.07-1.74,1.46-1.11.97-1.9.91-2.59-.54-1.22-2.54-3.33-4.1-5.89-5.22-1.75-.77-3.36-1.04-5.23-.42-1.71.56-3.56.71-5.34,1.09-2.24.47-4.38,1.25-5.92,3.01-1.51,1.72-3.28,2.39-5.53,2.24-2.62-.18-4.86.34-6.49,2.86-1.34,2.07-3.61,1.13-5.53.74-3.68-.74-4.01-1.11-3.72-4.73.36-4.34-1.58-7.84-3.68-11.39-1.26-2.13-4.06-3.93-2.11-7.13.16-.27-.48-1.04-.76-1.57-2.09-4.05-.99-8.48,2.79-10.99,2.41-1.6,5.15-2.41,7.86-3.31,2.57-.86,5.84-1.72,6.46-4.32,1.07-4.49,4.89-5.99,7.6-8.68,2.49-2.48,5.51-3.91,9.13-3.59,1.32.12,2.05-.16,2.37-1.62.33-1.48,1.4-2.63,2.74-3.32,4.71-2.43,9.69-2.92,14.81-1.65,1.87.46,2.3,2.3,1.19,4.19-1.67,2.82-1.55,3.65,1.03,5.63,1.65,1.27,3.38,2.42,5.07,3.63,1.81,1.31,2.8,1.03,3.37-1.31.7-2.88.9-5.82,1.42-8.71.29-1.64.78-3.2,1.7-4.58,1.12-1.7,2.92-1.62,3.81.22.59,1.24.96,2.58,1.41,3.89.68,1.98.85,4.11,3.17,5.28,1.17.59,1.42,2.29,1.41,3.74-.02,2.01.42,3.93,1.05,5.85.51,1.56,1.04,2.78,2.96,3.11,1.42.24,2.27,1.55,2.64,2.97.61,2.32,2.42,3.99,3.38,5.98,1.7,3.52,5.58,6.05,5.44,10.28-.12,3.6-.61,7.23-1.77,10.72-.8,2.41-1.95,4.61-3.47,6.63-2.25,2.99-4.21,6.11-5.23,9.77-.45,1.63-1.33,2.8-3.43,2.06-1.16-.41-2.18.4-3.06,1.08-1.27.98-2.7,1.42-4.14.77-2.52-1.13-5.21-1.19-7.86-1.53-1.92-.25-4.01-.93-4.35-2.76-.7-3.77-4.04-5.95-4.98-9.8Z"/>
        <g>
          <path class="cls-1" d="m118.01,7.04c-.57-.1-1.11.29-1.2.86-.16.99-.27,1.81-.35,2.42-.23,1.73-.46,3.47-.88,5.17,0,.03-.02.06-.02.09-.14.55-.79.77-1.25.44-.62-.45-1.24-.88-1.86-1.32-1.06-.74-2.14-1.5-3.17-2.29-2.02-1.55-2.03-1.62-.7-3.87.83-1.41,1.02-2.9.52-4.11-.44-1.04-1.34-1.78-2.54-2.07-5.53-1.38-10.83-.79-15.75,1.76-1.83.94-3.05,2.45-3.44,4.23-.1.43-.2.54-.2.54,0,0-.15.08-.73.03-3.78-.34-7.21,1-10.2,3.97-.72.71-1.53,1.34-2.39,2.01-2.2,1.71-4.7,3.65-5.58,7.32-.4,1.66-2.82,2.46-4.96,3.15l-1.45.48c-2.48.81-5.04,1.66-7.35,3.2-4.37,2.9-5.67,8.02-3.24,12.73.11.23.26.44.39.66.03.05.06.1.1.16-1.45,2.95.22,5.06,1.45,6.63.36.46.71.9.96,1.32,2.17,3.67,3.81,6.77,3.49,10.59-.35,4.3.41,5.28,4.8,6.16.26.05.53.11.81.18,1.77.42,4.45,1.06,6.12-1.51,1.16-1.79,2.64-2.42,5.26-2.25,2.7.18,4.87-.7,6.63-2.69,1.1-1.26,2.7-2.05,5.19-2.58.6-.12,1.21-.23,1.85-.33,1.19-.2,2.42-.4,3.63-.8,1.39-.45,2.63-.34,4.27.38,2.62,1.15,4.28,2.6,5.22,4.57.19.4.79,1.65,2.06,1.91,1.27.26,2.3-.64,2.63-.94.08-.07.16-.13.24-.2.67,1.02,3.72,5.27,4.39,6.46.73,1.29,1.37,2.55,1.93,3.74.19.4.69.66,1.12.58l.53-.1c.73-.14,1.07-.79.74-1.46-.64-1.32-1.35-2.77-2.12-4.3-.74-1.47-4.28-5.92-4.67-7.52-.23-.97-1.42-1.33-2.18-.69l-.72.6c-.41.35-.73.61-1.03.87-.12.11-.23.19-.3.24-.05-.08-.12-.19-.19-.34-1.23-2.58-3.32-4.45-6.56-5.87-2.25-.99-4.16-1.13-6.2-.47-1.01.33-2.09.51-3.23.7-.64.11-1.3.22-1.97.36-2.08.44-4.72,1.23-6.66,3.44-1.19,1.36-2.55,1.91-4.42,1.78-2.25-.15-5.48.04-7.71,3.47-.54.84-1.24.82-3.23.36-.3-.07-.6-.15-.89-.2-.8-.16-2.29-.46-2.56-.8-.25-.33-.13-1.79-.08-2.5.38-4.6-1.52-8.24-3.86-12.19-.34-.58-.76-1.1-1.16-1.62-1.32-1.68-1.91-2.55-.96-4.12.55-.91-.02-1.81-.45-2.46-.1-.15-.19-.3-.26-.43-1.79-3.48-.88-7.11,2.34-9.25,2.01-1.33,4.29-2.09,6.71-2.88l1.44-.48c2.67-.87,6-1.96,6.74-5.09.66-2.75,2.49-4.17,4.61-5.82.88-.68,1.79-1.39,2.63-2.22,2.44-2.42,5.08-3.47,8.07-3.2.78.07,3.15.28,3.8-2.67.29-1.34,1.41-2.09,2.05-2.42,4.33-2.23,8.99-2.75,13.86-1.54.55.13.66.41.7.5.17.4.04,1.03-.34,1.69-2.02,3.42-1.73,5.01,1.37,7.38,1.08.82,2.19,1.61,3.27,2.37.61.43,1.23.86,1.83,1.29.85.61,2.12,1.36,3.41.88,1.31-.48,1.8-1.93,2.06-2.97.4-1.66.57-2.63.93-5.44.12-.91.23-1.71.34-2.36.09-.55-.29-1.07-.84-1.17l-.62-.11Z"/>
          <path class="cls-1" d="m132.88,22.6c-.57-.12-.64-.45-1.1-.37-.63.1-.8.82-1.7,2.33-.95,1.6-1.36,1.8-1.21,2.23.27.81,2.05,1.21,2.84.62.21-.16.42-.44.83-1.01.38-.53.51-.81.73-.8.24,0,.29.37.69.72.33.29.67.38,1.02.47,1.03.27,3.33.21,4.22-1.29.27-.46.44-.88.36-1.41-.15-1.09-.45-2.17-.72-3.24-.16-.64-.33-.99-.6-1.09-.38-.14-.82.18-1.18.45-2.96,2.19-3.58,2.52-4.18,2.4Z"/>
          <path class="cls-1" d="m138.2,31.12c-.58-.09-.66-.41-1.12-.31-.62.14-.75.86-1.57,2.41-.86,1.65-1.26,1.87-1.09,2.3.31.79,2.11,1.1,2.86.47.2-.17.39-.46.77-1.05.35-.55.47-.83.69-.84.24,0,.31.35.73.68.34.27.69.34,1.05.42,1.04.21,3.33.03,4.14-1.52.25-.47.39-.9.29-1.43-.21-1.08-.57-2.14-.89-3.2-.19-.63-.39-.97-.66-1.06-.39-.12-.81.23-1.15.51-2.84,2.34-3.44,2.71-4.05,2.62Z"/>
          <path class="cls-1" d="m142.43,39.9c-.63-.16-.69-.53-1.21-.47-.71.09-.93.88-2.01,2.51-1.14,1.73-1.6,1.94-1.46,2.43.26.91,2.22,1.45,3.13.83.24-.16.49-.47.97-1.08.45-.57.61-.88.85-.86.27.02.31.42.73.83.35.34.73.46,1.12.58,1.13.35,3.7.39,4.77-1.23.33-.49.53-.95.48-1.55-.12-1.23-.4-2.44-.64-3.65-.14-.72-.32-1.12-.62-1.25-.42-.18-.92.16-1.34.44-3.41,2.29-4.12,2.64-4.78,2.47Z"/>
          <path class="cls-1" d="m133.2,68.29c-.33-.57-.11-.87-.52-1.19-.56-.44-1.28-.05-3.2.34-2.03.41-2.51.22-2.76.67-.47.83.53,2.6,1.61,2.81.29.06.68.02,1.46-.07.72-.08,1.05-.18,1.21,0,.18.21-.08.51-.08,1.11,0,.49.19.84.38,1.2.55,1.05,2.32,2.91,4.23,2.52.58-.12,1.05-.29,1.44-.75.79-.95,1.46-2,2.15-3.02.41-.61.57-1.02.45-1.31-.17-.42-.77-.54-1.26-.64-4.02-.81-4.77-1.07-5.12-1.67Z"/>
          <path class="cls-1" d="m139,59.09c-.4-.52-.22-.84-.67-1.11-.61-.37-1.27.12-3.12.75-1.96.67-2.45.55-2.64,1.03-.35.88.87,2.51,1.97,2.57.29.02.67-.07,1.43-.26.7-.17,1.02-.32,1.2-.15.2.18-.02.52.07,1.11.07.48.3.81.53,1.14.68.97,2.68,2.58,4.52,1.95.56-.19,1.01-.43,1.33-.94.66-1.04,1.18-2.17,1.73-3.28.33-.66.43-1.09.27-1.36-.22-.4-.83-.44-1.33-.47-4.1-.28-4.87-.44-5.29-.98Z"/>
          <path class="cls-1" d="m143.09,50c-.53-.38-.45-.75-.96-.88-.69-.18-1.19.47-2.79,1.6-1.69,1.2-2.2,1.22-2.25,1.73-.09.95,1.54,2.16,2.61,1.92.28-.06.62-.26,1.3-.65.63-.36.89-.59,1.11-.48.25.12.13.51.38,1.05.2.44.51.69.83.95.92.74,3.3,1.72,4.89.6.48-.34.84-.69,1.01-1.27.34-1.18.52-2.42.74-3.63.13-.73.11-1.16-.12-1.39-.33-.32-.92-.18-1.41-.08-4.01.88-4.8.95-5.35.54Z"/>
          <path class="cls-1" d="m129.99,15.52c-.48-.1-.53-.37-.92-.31-.52.09-.66.68-1.41,1.93-.79,1.33-1.13,1.49-1.01,1.85.23.67,1.7,1,2.35.51.17-.13.35-.37.69-.84.32-.44.42-.67.61-.66.2,0,.24.3.57.6.27.24.56.31.85.39.85.22,2.76.17,3.5-1.07.23-.38.36-.73.3-1.17-.13-.91-.38-1.8-.59-2.69-.13-.53-.28-.82-.5-.91-.32-.12-.68.15-.98.37-2.46,1.82-2.97,2.1-3.47,1.99Z"/>
          <path class="cls-1" d="m126.66,8.1c-.47-.13-.51-.4-.89-.37-.53.05-.71.64-1.53,1.84-.87,1.27-1.22,1.42-1.12,1.79.18.68,1.63,1.11,2.32.66.18-.12.37-.34.74-.79.34-.42.47-.64.65-.62.2.02.22.32.53.63.26.26.54.35.82.44.84.28,2.74.35,3.56-.85.25-.36.41-.7.38-1.15-.07-.91-.26-1.82-.42-2.73-.1-.54-.22-.84-.44-.94-.31-.14-.69.11-1,.31-2.57,1.66-3.1,1.9-3.59,1.77Z"/>
          <path class="cls-1" d="m129.17,84.42c.48-.03,1.35.05,1.94-.53.48-.48.27-.91.68-1.65.71-1.28,2.01-1.23,2.01-1.84,0-.67-1.57-1.57-2.99-1.7-.53-.05-1.09-.17-1.88-.41-.28-.09-.54-.35-.71-.59-.52-.78-1.97-1.36-2.87-1.05-.27.09-.54.33-.68.58-.46.82-.19,1.52-.33,2.54-.14.99-.65,1.52-.99,2.09-1.53,2.52-.79,7.35.38,7.6,1.25.28,2.53-4.84,5.44-5.03Z"/>
          <path class="cls-1" d="m125.48,1.2c-.38-.18-.38-.42-.71-.44-.46-.03-.69.44-1.56,1.35-.92.96-1.24,1.04-1.21,1.37.06.61,1.24,1.17,1.88.89.17-.08.36-.24.74-.57.35-.31.49-.48.64-.44.17.04.14.3.37.61.18.25.41.37.64.49.68.35,2.29.68,3.16-.22.26-.27.45-.54.48-.93.07-.79.03-1.59.02-2.38,0-.47-.07-.75-.25-.86-.24-.16-.6,0-.9.13-2.42,1.05-2.91,1.19-3.31,1Z"/>
        </g>
      </g>
      <g>
        <g>
          <path class="cls-1" d="m5.2,118.07c-.74,0-1.43-.12-2.06-.36s-1.19-.59-1.65-1.04c-.47-.45-.83-.97-1.09-1.58S0,113.83,0,113.11s.13-1.38.39-1.99.63-1.13,1.1-1.58,1.02-.79,1.66-1.04c.63-.24,1.32-.36,2.06-.36.83,0,1.59.14,2.26.43.68.29,1.24.71,1.7,1.27l-1.44,1.32c-.32-.37-.68-.66-1.09-.85-.41-.19-.85-.29-1.32-.29-.45,0-.86.08-1.23.23-.37.15-.7.36-.97.64-.27.27-.49.6-.64.97-.15.37-.23.79-.23,1.25s.08.87.23,1.25c.15.37.36.7.64.97.27.27.6.49.97.64.37.15.79.23,1.23.23.48,0,.92-.1,1.32-.29.41-.2.77-.48,1.09-.86l1.44,1.32c-.46.56-1.02.98-1.7,1.27-.68.29-1.43.44-2.28.44Z"/>
          <path class="cls-1" d="m15.48,117.91h-2.23v-9.6h2.23v9.6Zm4.51-3.93h-4.69v-1.88h4.69v1.88Zm-.16-5.66h2.22v9.6h-2.22v-9.6Z"/>
          <path class="cls-1" d="m26.96,117.91v-9.6h2.23v9.6h-2.23Z"/>
          <path class="cls-1" d="m34.11,117.91v-9.6h4.15c.86,0,1.6.14,2.22.42.62.28,1.1.68,1.44,1.2s.51,1.14.51,1.85-.17,1.34-.51,1.86c-.34.52-.82.91-1.44,1.18-.62.27-1.36.4-2.22.4h-2.93l1.01-.96v3.65h-2.23Zm2.23-3.4l-1.01-1.06h2.81c.68,0,1.19-.15,1.54-.44.35-.29.52-.7.52-1.23s-.17-.94-.52-1.23c-.35-.29-.86-.43-1.54-.43h-2.81l1.01-1.06v5.44Zm3.88,3.4l-2.41-3.48h2.39l2.41,3.48h-2.39Z"/>
          <path class="cls-1" d="m51.82,118.07c-.76,0-1.46-.12-2.1-.37-.64-.25-1.2-.59-1.67-1.04s-.84-.97-1.1-1.58c-.26-.6-.39-1.26-.39-1.97s.13-1.38.39-1.98.63-1.12,1.1-1.57c.48-.45,1.03-.79,1.67-1.04.64-.25,1.33-.37,2.09-.37s1.46.12,2.09.36c.63.24,1.19.59,1.67,1.04s.84.97,1.1,1.58.39,1.27.39,1.99-.13,1.37-.39,1.98c-.26.61-.63,1.14-1.1,1.58-.48.45-1.03.79-1.67,1.04-.64.24-1.33.36-2.08.36Zm-.01-1.88c.43,0,.82-.08,1.19-.23.36-.15.68-.37.95-.64.27-.28.49-.6.64-.97.15-.37.23-.78.23-1.24s-.08-.87-.23-1.24c-.15-.37-.36-.69-.64-.97-.27-.28-.59-.49-.95-.64-.36-.15-.76-.23-1.19-.23s-.83.08-1.19.23c-.37.15-.68.37-.95.64-.27.28-.48.6-.63.97-.15.37-.23.78-.23,1.24s.08.87.23,1.24c.15.37.36.69.63.97.27.28.59.49.95.64.37.15.76.23,1.19.23Z"/>
          <path class="cls-1" d="m61.61,117.91v-9.6h4.15c.86,0,1.6.14,2.22.42.62.28,1.1.68,1.44,1.2s.51,1.14.51,1.85-.17,1.34-.51,1.86c-.34.52-.82.92-1.44,1.2-.62.28-1.36.43-2.22.43h-2.93l1.01-1v3.65h-2.23Zm2.23-3.4l-1.01-1.06h2.81c.68,0,1.19-.15,1.54-.44.35-.29.52-.7.52-1.23s-.17-.94-.52-1.23c-.35-.29-.86-.43-1.54-.43h-2.81l1.01-1.06v5.44Z"/>
          <path class="cls-1" d="m74.25,117.91v-9.6h4.15c.86,0,1.6.14,2.22.42.62.28,1.1.68,1.44,1.2s.51,1.14.51,1.85-.17,1.34-.51,1.86c-.34.52-.82.91-1.44,1.18-.62.27-1.36.4-2.22.4h-2.93l1.01-.96v3.65h-2.23Zm2.23-3.4l-1.01-1.06h2.81c.68,0,1.19-.15,1.54-.44.35-.29.52-.7.52-1.23s-.17-.94-.52-1.23c-.35-.29-.86-.43-1.54-.43h-2.81l1.01-1.06v5.44Zm3.88,3.4l-2.41-3.48h2.39l2.41,3.48h-2.39Z"/>
          <path class="cls-1" d="m86.5,117.91l4.26-9.6h2.19l4.3,9.6h-2.33l-3.52-8.47h.89l-3.52,8.47h-2.28Zm2.15-2.06l.56-1.69h4.96l.58,1.69h-6.1Z"/>
          <path class="cls-1" d="m105.5,118.07c-.74,0-1.43-.12-2.06-.36s-1.19-.59-1.65-1.04c-.47-.45-.83-.97-1.09-1.58s-.39-1.27-.39-1.99.13-1.38.39-1.99.63-1.13,1.1-1.58,1.02-.79,1.66-1.04c.63-.24,1.32-.36,2.06-.36.83,0,1.59.14,2.26.43.68.29,1.24.71,1.7,1.27l-1.44,1.32c-.32-.37-.68-.66-1.09-.85-.41-.19-.85-.29-1.32-.29-.45,0-.86.08-1.23.23-.37.15-.7.36-.97.64-.27.27-.49.6-.64.97-.15.37-.23.79-.23,1.25s.08.87.23,1.25c.15.37.36.7.64.97.27.27.6.49.97.64.37.15.79.23,1.23.23.48,0,.92-.1,1.32-.29.41-.2.77-.48,1.09-.86l1.44,1.32c-.46.56-1.02.98-1.7,1.27-.68.29-1.43.44-2.28.44Z"/>
          <path class="cls-1" d="m116.07,117.91v-7.79h-3.07v-1.81h8.36v1.81h-3.07v7.79h-2.22Z"/>
          <path class="cls-1" d="m125.51,117.91v-9.6h2.23v9.6h-2.23Z"/>
          <path class="cls-1" d="m137.48,118.07c-.74,0-1.43-.12-2.06-.36-.63-.24-1.19-.59-1.65-1.04-.47-.45-.83-.97-1.09-1.58-.26-.6-.39-1.27-.39-1.99s.13-1.38.39-1.99c.26-.6.63-1.13,1.1-1.58s1.02-.79,1.66-1.04c.63-.24,1.32-.36,2.06-.36.83,0,1.59.14,2.26.43.68.29,1.24.71,1.7,1.27l-1.44,1.32c-.32-.37-.68-.66-1.09-.85-.41-.19-.85-.29-1.32-.29-.45,0-.86.08-1.23.23-.37.15-.7.36-.97.64-.27.27-.49.6-.64.97-.15.37-.23.79-.23,1.25s.07.87.23,1.25c.15.37.36.7.64.97.27.27.6.49.97.64.37.15.79.23,1.23.23.48,0,.92-.1,1.32-.29.41-.2.77-.48,1.09-.86l1.44,1.32c-.46.56-1.02.98-1.7,1.27-.68.29-1.43.44-2.27.44Z"/>
          <path class="cls-1" d="m157.56,118.07c-.74,0-1.43-.12-2.06-.36-.64-.24-1.19-.59-1.65-1.04-.47-.45-.83-.97-1.09-1.58-.26-.6-.39-1.27-.39-1.99s.13-1.38.39-1.99c.26-.6.63-1.13,1.1-1.58s1.02-.79,1.66-1.04,1.32-.36,2.06-.36c.83,0,1.59.14,2.26.43s1.24.71,1.7,1.27l-1.44,1.32c-.32-.37-.68-.66-1.09-.85-.41-.19-.85-.29-1.32-.29-.45,0-.86.08-1.23.23-.37.15-.7.36-.97.64-.27.27-.49.6-.64.97s-.23.79-.23,1.25.08.87.23,1.25.36.7.64.97c.27.27.6.49.97.64.37.15.79.23,1.23.23.48,0,.92-.1,1.32-.29.41-.2.77-.48,1.09-.86l1.44,1.32c-.46.56-1.02.98-1.7,1.27-.68.29-1.43.44-2.28.44Z"/>
          <path class="cls-1" d="m164.98,117.91l4.26-9.6h2.19l4.31,9.6h-2.33l-3.52-8.47h.89l-3.52,8.47h-2.27Zm2.15-2.06l.56-1.69h4.96l.58,1.69h-6.1Z"/>
          <path class="cls-1" d="m179.66,117.91v-9.6h4.15c.86,0,1.6.14,2.22.42.62.28,1.1.68,1.44,1.2s.51,1.14.51,1.85-.17,1.34-.51,1.86c-.34.52-.82.91-1.44,1.18-.62.27-1.36.4-2.22.4h-2.93l1.01-.96v3.65h-2.23Zm2.23-3.4l-1.01-1.06h2.81c.68,0,1.19-.15,1.54-.44.35-.29.52-.7.52-1.23s-.17-.94-.52-1.23-.86-.43-1.54-.43h-2.81l1.01-1.06v5.44Zm3.88,3.4l-2.41-3.48h2.39l2.41,3.48h-2.39Z"/>
          <path class="cls-1" d="m194.78,116.13h5.22v1.78h-7.43v-9.6h7.25v1.78h-5.05v6.03Zm-.17-3.96h4.62v1.74h-4.62v-1.74Z"/>
        </g>
        <rect class="cls-2" y="130.06" width="56.25" height="1.14"/>
        <rect class="cls-2" x="143.87" y="130.06" width="56.13" height="1.14"/>
        <g>
          <path class="cls-1" d="m68.22,134l2.92-6.4h.67l2.92,6.4h-.71l-2.69-6h.27l-2.69,6h-.7Zm1.15-1.71l.2-.55h3.72l.2.55h-4.12Z"/>
          <path class="cls-1" d="m79.48,134.05c-.82,0-1.46-.23-1.93-.7s-.7-1.16-.7-2.08v-3.66h.68v3.64c0,.76.17,1.31.51,1.67.34.36.82.54,1.44.54s1.11-.18,1.45-.54c.34-.36.51-.92.51-1.67v-3.64h.66v3.66c0,.92-.23,1.61-.7,2.08-.47.47-1.11.7-1.92.7Z"/>
          <path class="cls-1" d="m87.13,134.05c-.48,0-.93-.08-1.37-.23-.44-.16-.77-.36-1.01-.6l.26-.52c.23.22.53.4.91.55.38.15.78.22,1.2.22s.73-.05.98-.15.44-.24.56-.41.18-.36.18-.57c0-.25-.07-.45-.21-.6s-.33-.27-.56-.36c-.23-.09-.49-.17-.77-.23s-.56-.14-.84-.21c-.28-.08-.54-.18-.77-.31-.23-.13-.42-.3-.57-.51-.14-.21-.21-.49-.21-.83,0-.32.08-.61.25-.87s.43-.48.77-.64c.35-.16.79-.24,1.33-.24.36,0,.72.05,1.07.15.35.1.66.24.91.42l-.23.54c-.27-.18-.57-.32-.87-.4-.31-.08-.6-.13-.89-.13-.38,0-.7.05-.95.16-.25.1-.43.24-.55.42s-.18.37-.18.59c0,.25.07.45.21.6.14.15.33.27.57.36.23.09.49.16.77.23.28.07.56.14.84.22s.53.18.77.31c.23.12.42.29.57.5s.21.48.21.81c0,.31-.09.6-.26.86s-.43.48-.78.64c-.35.16-.8.24-1.35.24Z"/>
          <path class="cls-1" d="m93.73,134v-5.81h-2.25v-.59h5.17v.59h-2.25v5.81h-.68Z"/>
          <path class="cls-1" d="m99.06,134v-6.4h2.39c.54,0,1.01.09,1.4.26s.69.42.9.75c.21.33.32.72.32,1.18s-.1.84-.32,1.17c-.21.33-.51.58-.9.75s-.86.26-1.4.26h-2.02l.3-.31v2.34h-.68Zm.68-2.28l-.3-.32h2c.64,0,1.13-.14,1.46-.42.33-.28.5-.67.5-1.18s-.17-.91-.5-1.19c-.33-.28-.82-.42-1.46-.42h-2l.3-.32v3.85Zm3.69,2.28l-1.65-2.32h.73l1.65,2.32h-.74Z"/>
          <path class="cls-1" d="m106.45,134l2.92-6.4h.67l2.92,6.4h-.71l-2.69-6h.27l-2.69,6h-.7Zm1.15-1.71l.2-.55h3.72l.2.55h-4.12Z"/>
          <path class="cls-1" d="m115.43,134v-6.4h.68v5.81h3.58v.59h-4.26Z"/>
          <path class="cls-1" d="m122.22,134v-6.4h.68v6.4h-.68Z"/>
          <path class="cls-1" d="m125.36,134l2.93-6.4h.67l2.92,6.4h-.71l-2.69-6h.27l-2.69,6h-.7Zm1.15-1.71l.2-.55h3.72l.2.55h-4.12Z"/>
        </g>
      </g>
    </g>
  </g>
</svg>