<svg width="200" height="182" viewBox="0 0 200 182" fill="none" xmlns="http://www.w3.org/2000/svg">
<g clip-path="url(#clip0_258_2478)">
<path d="M200 7.38311C200 7.38311 200.151 5.26931 198.898 1.17759C198.792 0.815219 198.611 0.558542 198.384 0.362261C197.735 -0.181289 196.739 0.0300911 196.376 0.105584C153.786 8.95337 134.702 21.4248 134.702 21.4248C132.77 22.7233 131.547 23.5688 130.46 24.3691C127.455 26.5885 125.296 28.3853 124.405 29.11C105.503 44.9938 108.13 42.3062 97.9692 51.3352C77.24 69.7102 50.517 84.9296 36.2949 113.013C35.0418 115.474 32.1128 122.948 26.2549 137.911C18.6909 157.192 17.7549 162.34 11.5648 168.44C5.9484 173.981 -0.800296 177.333 0.0904722 179.809C0.618894 181.304 3.62335 181.621 6.31075 181.621C66.2187 181.621 133.192 181.621 193.1 181.621C200.106 173.558 200.679 169.633 199.577 167.549C197.901 164.409 185.264 165.269 181.264 160.03C180.629 159.2 179.844 157.962 178.848 154.927C176.206 146.894 176.538 139.828 176.553 136.129C176.568 131.146 176.04 124.02 173.428 115.142C173.398 109.963 173.639 104.739 174.062 99.5601C174.877 90.9237 179.059 82.9366 178.818 74.1492C178.818 64.1086 180.826 65.3316 170.499 62.8101C169.955 62.6742 169.291 62.5534 169.306 61.8287C169.321 61.1946 169.94 61.0889 170.469 60.9228C173.065 60.1377 175.738 59.7904 178.395 59.3223C180.796 59.0959 181.233 56.6046 181.717 54.672C181.988 53.3131 181.143 52.1354 179.829 51.7428C179.195 51.5616 178.591 51.305 178.002 51.003C176.312 50.0669 178.712 48.9496 179.724 49.1459C182.32 49.2667 183.121 48.5872 184.147 45.6128C185.566 41.506 187.529 37.5501 188.541 33.3225C191.228 22.1496 199.456 13.332 200.015 7.39821L200 7.38311Z" fill="#231F20"/>
<path d="M47.5879 181.561V133.426H59.5604V152.481H77.9646V133.426H89.922V181.591C85.9362 181.591 81.9504 181.591 77.9646 181.591V162.355H59.5604V181.576H47.5879V181.561Z" fill="white"/>
<path d="M101.079 133.426V181.606H113.037V133.426H101.079Z" fill="white"/>
<path d="M155.507 133.426V162.989C155.507 171.762 152.819 175.748 145.497 175.748C138.175 175.748 135.502 171.399 135.502 162.989V133.426H123.545V164.952C123.545 168.666 123.802 176.744 130.505 181.621C140.424 181.636 150.328 181.636 160.248 181.651C167.102 176.699 167.464 168.44 167.464 164.952V133.426H155.507Z" fill="white"/>
<path d="M55.9068 107.865C59.5 107.865 62.6404 109.223 62.6404 113.632C62.6404 119.249 57.9751 119.581 55.8011 119.581H51.8002V125.726H47.5879V107.865H55.9068ZM51.8002 116.108H55.0915C57.0995 116.108 58.0959 115.399 58.0959 113.662C58.0959 111.231 56.0275 111.337 55.0915 111.337H51.8002V116.108Z" fill="white"/>
<path d="M65.2822 107.864H74.4164C76.2583 107.864 80.4857 108.317 80.4857 112.938C80.4857 115.972 78.5532 116.999 77.3755 117.407V117.452C79.8214 118.192 79.927 120.457 79.927 121.785C80.0025 124.08 79.9723 124.775 80.6215 125.711H76.3338C75.594 124.639 75.8205 123.854 75.6242 121.166C75.4279 119.053 73.2538 119.128 72.7405 119.128H69.4945V125.711H65.2822V107.849V107.864ZM69.4945 115.882H73.3444C75.7148 115.882 76.0469 114.508 76.0469 113.632C76.0469 111.866 75.0203 111.337 73.1934 111.337H69.4945V115.882Z" fill="white"/>
<path d="M82.7656 116.803C82.7656 112.651 84.7585 107.366 91.7941 107.366C97.9389 107.366 100.823 111.398 100.823 116.803C100.823 122.208 97.9389 126.239 91.7941 126.239C84.7585 126.239 82.7656 120.955 82.7656 116.803ZM96.2932 116.803C96.2932 115.172 96.0819 110.839 91.8092 110.839C89.4841 110.839 87.3402 112.092 87.3402 116.803C87.3402 121.514 89.4841 122.767 91.8092 122.767C96.0969 122.767 96.2932 118.298 96.2932 116.803Z" fill="white"/>
<path d="M102.227 119.143H106.439V119.853C106.439 121.77 106.982 122.767 108.613 122.767C110.243 122.767 110.576 121.695 110.576 119.853V107.865H114.788V119.264C114.788 125.394 111.497 126.224 108.643 126.224C103.102 126.224 102.242 122.374 102.242 120.26V119.143H102.227Z" fill="white"/>
<path d="M131.426 114.961V118.252H122.699V122.253H132.86V125.726H118.502V107.865H132.618V111.337H122.714V114.961H131.441H131.426Z" fill="white"/>
<path d="M151.415 119.43C151.128 122.102 149.633 126.239 143.307 126.239C138.733 126.239 134.551 124.141 134.551 117.135C134.551 107.713 141.42 107.366 143.141 107.366C149.498 107.366 151.083 111.322 151.204 113.949H147.067C146.659 110.96 144.304 110.839 143.338 110.839C142.371 110.839 139.08 111.02 139.08 116.984C139.08 120.351 140.605 122.782 143.474 122.782C146.342 122.782 147.022 120.759 147.218 119.445H151.4L151.415 119.43Z" fill="white"/>
<path d="M152.457 111.337V107.865H167.464V111.337H162.074V125.726H157.862V111.337H152.457Z" fill="white"/>
</g>
<defs>
<clipPath id="clip0_258_2478">
<rect width="200" height="181.651" fill="white"/>
</clipPath>
</defs>
</svg>
