<?xml version="1.0" encoding="utf-8"?>
<!-- Generator: Adobe Illustrator 27.8.1, SVG Export Plug-In . SVG Version: 6.00 Build 0)  -->
<svg version="1.1" id="Layer_1" xmlns="http://www.w3.org/2000/svg" xmlns:xlink="http://www.w3.org/1999/xlink" x="0px" y="0px"
	 viewBox="0 0 200 171" style="enable-background:new 0 0 200 171;" xml:space="preserve">
<style type="text/css">
	.st0{fill:#F79946;}
	.st1{fill:#FFFFFF;}
</style>
<path class="st0" d="M155.7,11.4c0-6.3-5-11.4-11.2-11.4H55.2c-6.1,0-11.2,5.1-11.2,11.4v68.7c0,6.3,5,11.4,11.2,11.4h78.2
	l22.3,22.9V11.4z"/>
<path class="st1" d="M78.8,49v8.4c0,2.2,1.2,4.2,3,5.2l14.4,8.1c1.7,1,3.8,1,5.5,0l14.4-8.1c1.8-1,3-3.1,3-5.2V49l-17.4,9.8
	c-1.7,1-3.8,1-5.5,0L78.8,49z M96.1,20.2L71.9,33.9c-2,1.1-2,4.1,0,5.2l24.3,13.7c1.7,1,3.8,1,5.5,0l23.1-13.1v17.6
	c0,1.6,1.3,3,2.9,3c1.6,0,2.9-1.3,2.9-3V38.3c0-1.1-0.6-2.1-1.5-2.6l-27.4-15.5C99.9,19.3,97.9,19.3,96.1,20.2z"/>
<path class="st0" d="M20.5,136.3h7v22.1c0,2.5-0.6,4.7-1.7,6.5c-1.1,1.9-2.8,3.3-4.8,4.4c-2.1,1-4.5,1.5-7.2,1.5
	c-2.8,0-5.2-0.5-7.2-1.5c-2.1-1-3.7-2.5-4.8-4.4s-1.7-4-1.7-6.5v-22.1h7v21.5c0,1.3,0.3,2.4,0.8,3.5c0.6,1,1.4,1.8,2.4,2.4
	c1,0.6,2.2,0.9,3.6,0.9c1.4,0,2.5-0.3,3.6-0.9c1-0.6,1.8-1.4,2.4-2.4c0.6-1,0.8-2.2,0.8-3.5V136.3z"/>
<path class="st0" d="M61.1,136.3v34H55l-14.5-21.4h-0.2v21.4h-7v-34h6.2l14.3,21.4h0.3v-21.4H61.1z"/>
<path class="st0" d="M73.9,136.3v34h-7v-34H73.9z"/>
<path class="st0" d="M102.8,144.8l-8.7,25.5h-7.8l-8.7-25.5h7.3l5.2,18.3h0.3l5.2-18.3H102.8z"/>
<path class="st0" d="M128.3,159.4v-2c0-2.2-0.3-4.1-0.9-5.7c-0.6-1.6-1.4-3-2.5-4.1c-1.1-1.1-2.3-1.9-3.7-2.4
	c-1.4-0.5-2.9-0.8-4.6-0.8c-2.5,0-4.6,0.5-6.4,1.7c-1.8,1.1-3.2,2.6-4.2,4.6c-1,2-1.5,4.3-1.5,6.9c0,2.7,0.5,5,1.5,7
	c1,2,2.4,3.5,4.2,4.6c1.9,1.1,4.1,1.6,6.6,1.6c2.1,0,3.9-0.3,5.4-1c1.6-0.7,2.9-1.6,3.9-2.7c1-1.2,1.7-2.6,2-4.1l-6.4-0.4
	c-0.2,0.6-0.6,1.2-1,1.6c-0.5,0.4-1,0.8-1.6,1c-0.6,0.2-1.3,0.3-2.1,0.3c-1.2,0-2.2-0.2-3-0.8c-0.9-0.5-1.5-1.2-2-2.1
	c-0.5-0.9-0.7-2-0.7-3.3v0H128.3z M112.1,152.5c0.5-0.8,1.1-1.5,1.9-2c0.8-0.5,1.7-0.8,2.8-0.8c1,0,1.9,0.2,2.7,0.7
	c0.8,0.5,1.4,1.1,1.8,1.8c0.4,0.8,0.6,1.7,0.6,2.7h-10.5C111.4,154.1,111.7,153.3,112.1,152.5z"/>
<path class="st0" d="M132.9,170.4v-25.5h6.7v4.5h0.3c0.5-1.6,1.2-2.8,2.3-3.6c1.1-0.8,2.3-1.2,3.7-1.2c0.3,0,0.7,0,1.1,0.1
	c0.4,0,0.8,0.1,1.1,0.2v6.3c-0.3-0.1-0.8-0.2-1.3-0.3c-0.6-0.1-1.1-0.1-1.6-0.1c-1,0-1.9,0.2-2.7,0.7c-0.8,0.4-1.4,1.1-1.9,1.9
	c-0.5,0.8-0.7,1.7-0.7,2.8v14.4H132.9z"/>
<path class="st0" d="M172.3,152.1l-6.3,0.4c-0.1-0.6-0.3-1.1-0.7-1.5c-0.4-0.5-0.8-0.8-1.4-1.1c-0.6-0.3-1.3-0.4-2.1-0.4
	c-1.1,0-2,0.2-2.7,0.7c-0.7,0.5-1.1,1.1-1.1,1.8c0,0.6,0.2,1.1,0.7,1.5c0.5,0.4,1.3,0.8,2.4,1l4.5,0.9c2.4,0.5,4.2,1.3,5.4,2.5
	c1.2,1.1,1.8,2.6,1.8,4.5c0,1.7-0.5,3.1-1.4,4.4c-1,1.3-2.3,2.2-3.9,3c-1.7,0.7-3.6,1-5.7,1c-3.3,0-5.9-0.7-7.9-2.1
	c-1.9-1.4-3.1-3.3-3.4-5.8l6.8-0.4c0.2,1,0.7,1.8,1.5,2.4c0.8,0.5,1.8,0.8,3,0.8c1.2,0,2.2-0.2,2.9-0.7c0.7-0.5,1.1-1.1,1.1-1.9
	c0-0.6-0.3-1.2-0.8-1.6c-0.5-0.4-1.3-0.7-2.4-1l-4.3-0.9c-2.4-0.5-4.2-1.4-5.4-2.6c-1.2-1.2-1.8-2.8-1.8-4.7c0-1.6,0.4-3.1,1.3-4.2
	c0.9-1.2,2.1-2.1,3.7-2.7c1.6-0.6,3.4-1,5.6-1c3.1,0,5.6,0.7,7.4,2C170.9,147.9,172,149.8,172.3,152.1z"/>
<path class="st0" d="M200,159.4v-2c0-2.2-0.3-4.1-0.9-5.7c-0.6-1.6-1.4-3-2.5-4.1c-1.1-1.1-2.3-1.9-3.7-2.4c-1.4-0.5-3-0.8-4.6-0.8
	c-2.4,0-4.6,0.5-6.4,1.7c-1.8,1.1-3.2,2.6-4.2,4.6c-1,2-1.5,4.3-1.5,6.9c0,2.7,0.5,5,1.5,7c1,2,2.4,3.5,4.2,4.6
	c1.8,1.1,4.1,1.6,6.6,1.6c2.1,0,3.9-0.3,5.4-1c1.6-0.7,2.9-1.6,3.9-2.7c1-1.2,1.7-2.6,2-4.1l-6.4-0.4c-0.2,0.6-0.6,1.2-1,1.6
	c-0.5,0.4-1,0.8-1.6,1c-0.6,0.2-1.3,0.3-2.1,0.3c-1.2,0-2.2-0.2-3-0.8c-0.8-0.5-1.5-1.2-2-2.1c-0.5-0.9-0.7-2-0.7-3.3v0H200z
	 M183.7,152.5c0.5-0.8,1.1-1.5,1.9-2c0.8-0.5,1.7-0.8,2.8-0.8c1,0,1.9,0.2,2.6,0.7c0.8,0.5,1.4,1.1,1.8,1.8c0.4,0.8,0.6,1.7,0.6,2.7
	H183C183.1,154.1,183.3,153.3,183.7,152.5z"/>
</svg>
