<svg width="36" height="36" viewBox="0 0 36 36" fill="none" xmlns="http://www.w3.org/2000/svg">
<path fill-rule="evenodd" clip-rule="evenodd" d="M18 0C13.1112 0 12.4992 0.0204 10.5792 0.108C8.6628 0.1956 7.3536 0.5004 6.2088 0.9456C5.0088 1.3968 3.9204 2.1048 3.0204 3.0216C2.10507 3.92056 1.39663 5.00819 0.9444 6.2088C0.5016 7.3536 0.1956 8.664 0.108 10.5804C0.0216 12.4992 0 13.11 0 18C0 22.89 0.0204 23.5008 0.108 25.4208C0.1956 27.3372 0.5004 28.6464 0.9456 29.7912C1.3968 30.9912 2.1048 32.0796 3.0216 32.9796C3.92059 33.8949 5.00821 34.6033 6.2088 35.0556C7.3536 35.4996 8.6628 35.8044 10.5792 35.892C12.4992 35.9796 13.1112 36 18 36C22.8888 36 23.5008 35.9796 25.4208 35.892C27.3372 35.8044 28.6464 35.4996 29.7912 35.0544C30.9912 34.6032 32.0796 33.8952 32.9796 32.9784C33.8949 32.0794 34.6034 30.9918 35.0556 29.7912C35.4996 28.6464 35.8044 27.3372 35.892 25.4208C35.9796 23.5008 36 22.8888 36 18C36 13.1112 35.9796 12.4992 35.892 10.5792C35.8044 8.6628 35.4996 7.3536 35.0544 6.2088C34.6025 5.00768 33.894 3.91959 32.9784 3.0204C32.0794 2.10507 30.9918 1.39663 29.7912 0.9444C28.6464 0.5016 27.336 0.1956 25.4196 0.108C23.5008 0.0216 22.89 0 18 0ZM18 3.2436C22.806 3.2436 23.376 3.2616 25.2744 3.348C27.0288 3.4284 27.9816 3.72 28.6164 3.9684C29.4564 4.2936 30.0564 4.6848 30.6864 5.3136C31.3164 5.9436 31.7064 6.5436 32.0316 7.3836C32.2788 8.0184 32.5716 8.9712 32.652 10.7256C32.7384 12.624 32.7564 13.194 32.7564 18C32.7564 22.806 32.7384 23.376 32.652 25.2744C32.5716 27.0288 32.28 27.9816 32.0316 28.6164C31.7435 29.3983 31.2839 30.1056 30.6864 30.6864C30.1057 31.284 29.3983 31.7437 28.6164 32.0316C27.9816 32.2788 27.0288 32.5716 25.2744 32.652C23.376 32.7384 22.8072 32.7564 18 32.7564C13.1928 32.7564 12.624 32.7384 10.7256 32.652C8.9712 32.5716 8.0184 32.28 7.3836 32.0316C6.60175 31.7435 5.89441 31.2839 5.3136 30.6864C4.71621 30.1055 4.25655 29.3982 3.9684 28.6164C3.7212 27.9816 3.4284 27.0288 3.348 25.2744C3.2616 23.376 3.2436 22.806 3.2436 18C3.2436 13.194 3.2616 12.624 3.348 10.7256C3.4284 8.9712 3.72 8.0184 3.9684 7.3836C4.2936 6.5436 4.6848 5.9436 5.3136 5.3136C5.89433 4.71605 6.60169 4.25637 7.3836 3.9684C8.0184 3.7212 8.9712 3.4284 10.7256 3.348C12.624 3.2616 13.194 3.2436 18 3.2436Z" fill="#00166A"/>
<path fill-rule="evenodd" clip-rule="evenodd" d="M18 24.006C17.2113 24.006 16.4303 23.8507 15.7016 23.5488C14.9729 23.247 14.3108 22.8046 13.7531 22.2469C13.1954 21.6892 12.753 21.0271 12.4512 20.2984C12.1493 19.5697 11.994 18.7887 11.994 18C11.994 17.2113 12.1493 16.4303 12.4512 15.7016C12.753 14.9729 13.1954 14.3108 13.7531 13.7531C14.3108 13.1954 14.9729 12.753 15.7016 12.4512C16.4303 12.1493 17.2113 11.994 18 11.994C19.5929 11.994 21.1205 12.6268 22.2469 13.7531C23.3732 14.8795 24.006 16.4071 24.006 18C24.006 19.5929 23.3732 21.1205 22.2469 22.2469C21.1205 23.3732 19.5929 24.006 18 24.006ZM18 8.748C15.5462 8.748 13.1929 9.72276 11.4578 11.4578C9.72276 13.1929 8.748 15.5462 8.748 18C8.748 20.4538 9.72276 22.8071 11.4578 24.5422C13.1929 26.2772 15.5462 27.252 18 27.252C20.4538 27.252 22.8071 26.2772 24.5421 24.5422C26.2772 22.8071 27.252 20.4538 27.252 18C27.252 15.5462 26.2772 13.1929 24.5421 11.4578C22.8071 9.72276 20.4538 8.748 18 8.748ZM29.9436 8.58C29.9436 9.16003 29.7132 9.7163 29.303 10.1264C28.8929 10.5366 28.3366 10.767 27.7566 10.767C27.1766 10.767 26.6203 10.5366 26.2102 10.1264C25.8 9.7163 25.5696 9.16003 25.5696 8.58C25.5696 7.99997 25.8 7.4437 26.2102 7.03356C26.6203 6.62342 27.1766 6.393 27.7566 6.393C28.3366 6.393 28.8929 6.62342 29.303 7.03356C29.7132 7.4437 29.9436 7.99997 29.9436 8.58Z" fill="#00166A"/>
</svg>
